<?xml version="1.0" encoding="utf-8"?>
<!-- Uploaded to: SVG Repo, www.svgrepo.com, Generator: SVG Repo Mixer Tools -->
<svg width="800px" height="800px" viewBox="0 -53.5 1131 1131" class="icon"  version="1.1" xmlns="http://www.w3.org/2000/svg"><path d="M17.112 507.608L16 512.472l0.552 3.408C118.904 621.92 273.216 693.328 445.896 689.512 638.048 685.2 730.52 630.488 877.312 512 730.52 393.52 638.048 338.792 445.904 334.488c-172.368-3.808-326.472 67.36-428.792 173.12z" fill="#F5B146" /><path d="M1008 620.824c-49.488-40.72-131.248-108.168-131.248-108.168l129.832-108.792" fill="#0092D2" /><path d="M1008 620.824c-49.488-40.72-131.248-108.168-131.248-108.168l129.832-108.792 1.416 216.96z" fill="#0092D2" /><path d="M52.944 549.848c4 3.432 8.144 6.712 12.232 10.056a580.536 580.536 0 0 0 28.856 21.928c4.552 3.216 9.04 6.504 13.752 9.632a582.4 582.4 0 0 0 42.92 26.256 587.536 587.536 0 0 0 295.192 71.784c192.016-4.304 284.552-58.952 431.16-177.32H16.064L16 512.472l0.552 3.408c11.432 11.824 23.696 23.064 36.392 33.968z" fill="#EF962F" /><path d="M876.752 512.648S958.52 580.104 1008 620.816l-0.752-108.632h-129.936l-0.56 0.464z" fill="#0085BF" /><path d="M16 512.472l0.552 3.408c38.096 39.456 83.432 74.08 134.16 101.848l6.224-0.472c44.472 0 80.488-47.096 80.488-105.288 0-58.128-36.016-105.256-80.488-105.256l-10.808 2.384c-48.56 27.216-92.256 60.512-129.016 98.512L16 512.472z" fill="#E5226B" /><path d="M237.392 512.184H16.064L16 512.472l0.552 3.408c11.432 11.832 23.688 23.072 36.392 33.976 3.408 2.936 6.936 5.728 10.432 8.568 0.624 0.496 1.216 1.024 1.832 1.512a575.512 575.512 0 0 0 28.584 21.712c2.2 1.576 4.432 3.168 6.688 4.712 2.416 1.704 4.8 3.44 7.312 5.112a582.4 582.4 0 0 0 42.92 26.256l6.224-0.472c44.408 0 80.36-46.976 80.456-105.072z" fill="#C9005B" /><path d="M159.752 511.72m-35.672 0a35.672 35.672 0 1 0 71.344 0 35.672 35.672 0 1 0-71.344 0Z" fill="#F5B146" /><path d="M124.168 512.184a35.624 35.624 0 0 0 35.592 35.208 35.616 35.616 0 0 0 35.576-35.208h-71.168z" fill="#EF962F" /></svg>